# xmcd
#
# Track frame offsets:
#	150
#	12795
#	34935
#	50502
#	64987
#	77447
#	93650
#	110525
#	128390
#	143207
#
# Disc length: 2114
#
# Revision: 3
# Processed by: cddbd v1.5.1PL0 Copyright (c) Steve Scherf et al.
# Submitted via: audiograbber 1.81.02
# Normalized: r1:TDELIM( - ),TSWAP
#
DISCID=7e08400a
DTITLE=Various Artist - Country Christmas
DYEAR=1997
DGENRE=Country
TTITLE0=Roy Clark - Jingle Bells
TTITLE1=Janie Fricke - It Came Upon A Midnight Clear
TTITLE2=Connie Smith - What Child Is This
TTITLE3=Lynn Anderson - Joy To The World
TTITLE4=Moe Bandy - Away In A Manger
TTITLE5=Donna Fargo - O Holy Night
TTITLE6=Faron Young - O Little Town Of Bethlehem
TTITLE7=Kitty Wells - Silent Night
TTITLE8=Johhy Cash - O Come All Ye Faithful
TTITLE9=Johnny Paycheck - Christmas Is
EXTD=
EXTT0=
EXTT1=
EXTT2=
EXTT3=
EXTT4=
EXTT5=
EXTT6=
EXTT7=
EXTT8=
EXTT9=
PLAYORDER=
